<mxfile host="app.diagrams.net" modified="2023-09-28T12:31:06.513Z" agent="Mozilla/5.0 (Windows NT 10.0; Win64; x64) AppleWebKit/537.36 (KHTML, like Gecko) Chrome/116.0.0.0 Safari/537.36" version="21.3.6" etag="_d7OhoZ_UvKOzEmRlHVr" type="github">
  <diagram name="PÃ¡gina-1" id="Urwu7qwTcOLkvCBN5Y3i">
    <mxGraphModel>
      <root>
        <mxCell id="0" />
        <mxCell id="1" parent="0" />
      </root>
    </mxGraphModel>
  </diagram>
</mxfile>
